<svg width="52" height="22" viewBox="0 0 52 22" fill="none" xmlns="http://www.w3.org/2000/svg">
<path d="M0.5 20.2727V20.7727H1H3.19236H3.69236V20.2727V14.0537L6.22671 14.9444L6.30719 14.9727H6.3925C6.82576 14.9727 7.2663 14.8459 7.6776 14.6725L10.1402 20.4682L10.2696 20.7727H10.6004H13.9774H14.8103L14.4187 20.0376L10.5993 12.868C10.6903 12.8102 10.7718 12.7616 10.8438 12.7234L10.8461 12.7222C11.83 12.1931 12.5749 11.4556 13.0607 10.5104C13.5382 9.58126 13.7702 8.52814 13.7702 7.36363C13.7702 6.19896 13.5382 5.14098 13.062 4.20126C12.5768 3.24382 11.8294 2.49657 10.8395 1.96083C9.83637 1.41188 8.58584 1.15454 7.1174 1.15454H1H0.5V1.65454V20.2727ZM5.42111 8.56499L3.69236 9.54457V4.15454H6.87568C6.8757 4.15763 6.8757 4.16078 6.8757 4.16401C6.87519 4.40582 6.80399 4.76425 6.70327 5.19835C6.68599 5.27284 6.66784 5.3495 6.64942 5.42737C6.56791 5.77182 6.48085 6.13977 6.43796 6.44635C6.41178 6.63345 6.39533 6.83906 6.42035 7.02543C6.44351 7.19799 6.52261 7.49126 6.81625 7.64374L6.81625 7.64375L6.81984 7.64558C7.08191 7.779 7.36029 7.71275 7.51472 7.66383C7.69722 7.60602 7.89117 7.50997 8.0771 7.40514C8.43933 7.20089 8.85845 6.91232 9.24504 6.64615C9.25728 6.63772 9.26949 6.62932 9.28166 6.62094C9.69327 6.33758 10.0607 6.08651 10.3398 5.9372C10.3537 5.92978 10.3669 5.92285 10.3795 5.91637C10.5324 6.33162 10.6132 6.81163 10.6132 7.36363C10.6132 8.04908 10.4886 8.6111 10.2598 9.06637L10.2588 9.06828C10.0927 9.40237 9.84375 9.68308 9.49679 9.9086C8.81953 9.25787 8.30108 8.82148 7.8906 8.5411C7.43722 8.23142 7.04983 8.0654 6.68103 8.07754C6.326 8.08924 6.07776 8.27037 5.94673 8.36597C5.93625 8.37361 5.92653 8.38071 5.91756 8.38713C5.78592 8.48132 5.74245 8.5 5.66761 8.5H5.53579L5.42111 8.56499Z" fill="url(#paint0_linear_2_23)" stroke="black"/>
<path d="M18.9049 4.13124H18.4049V4.63124V20.7875V21.2875H18.9049H20.6716H21.1716V20.7875V10.8197L23.1287 15.9332L23.1314 15.9402L23.1343 15.9471L25.236 20.9802L25.3643 21.2875H25.6973H27.4031H27.7495L27.8712 20.9631L29.7569 15.9376L31.9289 10.6681V20.7875V21.2875H32.4289H34.1955H34.6955V20.7875V4.63124V4.13124H34.1955H31.6369H31.3006L31.1738 4.44276L26.3039 16.4087L21.285 4.43791L21.1564 4.13124H20.8238H18.9049Z" fill="black" stroke="black"/>
<path d="M32.5372 6.15978L27.0052 19.9909H25.702L20.17 6.15978L20.0443 5.84546H19.7058H19.529H19.029V6.34546V19.9909H17.9781V2.37273H19.7557L25.783 17.5122L25.9084 17.8273H26.2475H26.3287L26.3536 17.8898L26.3785 17.8273H26.4597H26.7988L26.9242 17.5122L32.9516 2.37273H34.7291V19.9909H33.6782V6.34546V5.84546H33.1782H33.0014H32.6629L32.5372 6.15978ZM25.3635 20.4986V20.9909H27.3437V20.4986L27.8025 20.6898L32.2893 10.3383V20.8909V21.3909H32.7893H35.6181H36.1181V20.8909V1.47273V0.972733H35.6181H32.3514H32.0123L31.8869 1.28779L26.3536 15.1862L20.8204 1.28779L20.6949 0.972733H20.3558H17.0891H16.5891V1.47273V20.8909V21.3909H17.0891H19.918H20.418V20.8909V10.3383L24.9048 20.6898L25.3635 20.4986Z" fill="#D9D9D9"/>
<path d="M32.5372 6.15978L27.0052 19.9909H25.702L20.17 6.15978L20.0443 5.84546H19.7058H19.529H19.029V6.34546V19.9909H17.9781V2.37273H19.7557L25.783 17.5122L25.9084 17.8273H26.2475H26.3287L26.3536 17.8898L26.3785 17.8273H26.4597H26.7988L26.9242 17.5122L32.9516 2.37273H34.7291V19.9909H33.6782V6.34546V5.84546H33.1782H33.0014H32.6629L32.5372 6.15978ZM25.3635 20.4986V20.9909H27.3437V20.4986L27.8025 20.6898L32.2893 10.3383V20.8909V21.3909H32.7893H35.6181H36.1181V20.8909V1.47273V0.972733H35.6181H32.3514H32.0123L31.8869 1.28779L26.3536 15.1862L20.8204 1.28779L20.6949 0.972733H20.3558H17.0891H16.5891V1.47273V20.8909V21.3909H17.0891H19.918H20.418V20.8909V10.3383L24.9048 20.6898L25.3635 20.4986Z" fill="black" fill-opacity="0.2"/>
<path d="M32.5372 6.15978L27.0052 19.9909H25.702L20.17 6.15978L20.0443 5.84546H19.7058H19.529H19.029V6.34546V19.9909H17.9781V2.37273H19.7557L25.783 17.5122L25.9084 17.8273H26.2475H26.3287L26.3536 17.8898L26.3785 17.8273H26.4597H26.7988L26.9242 17.5122L32.9516 2.37273H34.7291V19.9909H33.6782V6.34546V5.84546H33.1782H33.0014H32.6629L32.5372 6.15978ZM25.3635 20.4986V20.9909H27.3437V20.4986L27.8025 20.6898L32.2893 10.3383V20.8909V21.3909H32.7893H35.6181H36.1181V20.8909V1.47273V0.972733H35.6181H32.3514H32.0123L31.8869 1.28779L26.3536 15.1862L20.8204 1.28779L20.6949 0.972733H20.3558H17.0891H16.5891V1.47273V20.8909V21.3909H17.0891H19.918H20.418V20.8909V10.3383L24.9048 20.6898L25.3635 20.4986Z" stroke="black"/>
<path d="M47.7452 6.36628L47.7961 6.80909H48.2419H50.3635H50.8794L50.8633 6.29341C50.8308 5.25748 50.5167 4.32102 49.9204 3.49839C49.3354 2.68337 48.547 2.04959 47.5708 1.59306C46.5866 1.12668 45.4747 0.899994 44.2461 0.899994C43.027 0.899994 41.9078 1.13058 40.8974 1.60097C39.893 2.06524 39.0801 2.72567 38.4722 3.58364L38.4718 3.58421C37.8582 4.45259 37.558 5.4648 37.558 6.59999C37.558 7.97603 38.0161 9.12875 38.9531 10.0097C39.8015 10.8074 40.9176 11.4136 42.2784 11.844L43.0739 13.8565L43.1645 14.0858L43.4016 14.1535C43.5845 14.2058 43.7696 14.1924 43.9172 14.1673C44.0715 14.141 44.2314 14.0933 44.3849 14.0389C44.6801 13.9343 45.0091 13.7837 45.3104 13.6457L45.3405 13.6319C45.6629 13.4843 45.9516 13.3533 46.1914 13.2716C46.3107 13.231 46.3986 13.2094 46.4587 13.2016C46.4717 13.1999 46.4817 13.199 46.4889 13.1987C46.9654 13.414 47.3334 13.6835 47.6075 14.0001C47.8494 14.2793 47.9894 14.6581 47.9894 15.1818C47.9894 15.7573 47.8272 16.2426 47.5095 16.6589C47.1923 17.0688 46.7598 17.4033 46.1951 17.6559C46.1611 17.6386 46.109 17.6059 46.0372 17.5485C45.8463 17.396 45.6245 17.1593 45.3634 16.8753C45.3491 16.8597 45.3347 16.844 45.3202 16.8282C45.0839 16.5709 44.8198 16.2834 44.5617 16.0587C44.4232 15.9381 44.2716 15.8222 44.1116 15.7347C43.9541 15.6484 43.758 15.5727 43.5389 15.5727C43.0564 15.5727 42.785 15.967 42.656 16.1957C42.5093 16.4554 42.3921 16.7831 42.2957 17.0526L42.2902 17.0679C42.1928 17.3401 42.1162 17.5506 42.0406 17.6945C41.5782 17.4998 41.1977 17.23 40.8905 16.8874C40.5713 16.5194 40.3756 16.0437 40.3243 15.431L40.2859 14.9727H39.826H37.5629H37.027L37.0641 15.5074C37.1406 16.6075 37.4707 17.59 38.0632 18.4404L38.0647 18.4425C38.663 19.2919 39.4784 19.9461 40.4936 20.4094L40.4947 20.4099C41.5222 20.8759 42.7184 21.1 44.0693 21.1C45.5153 21.1 46.7765 20.8514 47.834 20.3309C48.8841 19.817 49.7025 19.1127 50.2654 18.2113C50.8306 17.3156 51.111 16.3136 51.111 15.2182C51.111 14.2798 50.924 13.4519 50.5221 12.7584C50.1411 12.1009 49.6524 11.5561 49.056 11.1309C48.4928 10.7193 47.8983 10.3922 47.2728 10.1518C46.7646 9.95447 46.2922 9.79219 45.8562 9.66605L44.6844 7.53206L44.582 7.34564L44.3767 7.29008C44.121 7.22088 43.9109 7.33907 43.8257 7.39339C43.7196 7.46099 43.6228 7.55059 43.5432 7.63153C43.4023 7.77481 43.2471 7.9628 43.1067 8.13281C43.0875 8.15611 43.0685 8.17907 43.0499 8.20154C42.8833 8.40274 42.74 8.57041 42.6205 8.67987C42.6129 8.6868 42.6057 8.69322 42.5989 8.69918C42.2859 8.57071 41.9848 8.41545 41.6953 8.23315C41.3878 8.03382 41.1384 7.78932 40.9424 7.49838C40.7743 7.23497 40.6796 6.90643 40.6796 6.4909C40.6796 5.99681 40.8146 5.56878 41.0817 5.19042C41.3401 4.83201 41.6969 4.53548 42.1683 4.30648C42.179 4.31571 42.1914 4.32689 42.2054 4.34037C42.3371 4.46708 42.4873 4.6691 42.6806 4.93233L42.6911 4.94652C42.8672 5.18644 43.0763 5.47111 43.2974 5.69442C43.5065 5.9056 43.831 6.17272 44.2461 6.17272C44.6752 6.17272 45.0391 5.97607 45.3217 5.7679C45.5812 5.57676 45.8239 5.33561 46.0265 5.13436C46.0442 5.11672 46.0617 5.09939 46.0788 5.08243C46.3125 4.85087 46.4778 4.69668 46.6148 4.61746C46.647 4.59883 46.669 4.58969 46.6821 4.58526C47.3062 5.01027 47.6559 5.59134 47.7452 6.36628Z" fill="url(#paint1_linear_2_23)" stroke="black"/>
<defs>
<linearGradient id="paint0_linear_2_23" x1="7.48869" y1="1.65455" x2="7.48869" y2="20.2727" gradientUnits="userSpaceOnUse">
<stop stop-color="#D7AAAA"/>
<stop offset="0.0635414" stop-color="#C9A0A0" stop-opacity="0.936459"/>
<stop offset="1" stop-opacity="0"/>
</linearGradient>
<linearGradient id="paint1_linear_2_23" x1="44.5113" y1="-4.52728" x2="44.5113" y2="26.6727" gradientUnits="userSpaceOnUse">
<stop stop-color="#C9A0A0"/>
<stop offset="1" stop-opacity="0"/>
</linearGradient>
</defs>
</svg>
